<?xml version="1.0" encoding="UTF-8" standalone="no"?>
<!DOCTYPE svg PUBLIC "-//W3C//DTD SVG 1.1//EN" "http://www.w3.org/Graphics/SVG/1.1/DTD/svg11.dtd">
<svg width="100%" height="100%" viewBox="0 0 31 16" version="1.1" xmlns="http://www.w3.org/2000/svg" xmlns:xlink="http://www.w3.org/1999/xlink" xml:space="preserve" xmlns:serif="http://www.serif.com/" style="fill-rule:evenodd;clip-rule:evenodd;stroke-linecap:round;stroke-linejoin:round;stroke-miterlimit:1.5;">
    <g transform="matrix(1,0,0,1,-2302.22,-2238.54)">
        <g id="export-short" serif:id="export short" transform="matrix(0.0595968,0,0,0.03125,2125.85,2238.54)">
            <rect x="2959.51" y="0" width="512" height="512" style="fill:none;"/>
            <g transform="matrix(0.930322,0,0,1.77421,87.6211,-169.884)">
                <g transform="matrix(0.600566,0,0,0.600566,3163.01,125.294)">
                    <circle cx="85.308" cy="342.913" r="56.713" style="fill:rgb(0,165,255);stroke:rgb(0,165,255);stroke-width:62.57px;"/>
                </g>
                <g transform="matrix(-0.991664,0,0,0.991664,3389.14,-104.345)">
                    <path d="M142.02,439.243C142.02,439.243 142.02,342.919 142.02,342.913C142.02,325.127 133.676,308.37 119.481,297.653" style="fill:none;stroke:rgb(0,165,255);stroke-width:37.89px;"/>
                </g>
                <g transform="matrix(24.6458,0,0,24.6458,-53737.5,-55142)">
                    <path d="M2314.55,2249.33C2315.85,2249.33 2316.9,2248.28 2316.9,2246.98C2316.9,2245.93 2316.2,2245 2315.19,2244.72C2316.2,2245 2316.9,2245.93 2316.9,2246.98C2316.9,2248.28 2315.85,2249.33 2314.55,2249.33Z" style="fill:none;stroke:rgb(0,165,255);stroke-width:1.52px;"/>
                </g>
                <g transform="matrix(19.7498,1.66481,-1.66481,19.7498,-38484.1,-48005.1)">
                    <path d="M2316.21,2245.32C2315.77,2244.88 2315.17,2244.63 2314.55,2244.63C2313.25,2244.63 2312.19,2245.68 2312.19,2246.98C2312.19,2248.28 2313.25,2249.33 2314.55,2249.33C2313.25,2249.33 2312.19,2248.28 2312.19,2246.98C2312.19,2245.68 2313.25,2244.63 2314.55,2244.63C2315.17,2244.63 2315.77,2244.88 2316.21,2245.32Z" style="fill:none;stroke:rgb(0,165,255);stroke-width:1.9px;"/>
                </g>
                <g transform="matrix(19.7498,1.66481,-1.66481,19.7498,-38492,-47912.1)">
                    <path d="M2312.88,2248.64C2313.33,2249.09 2313.92,2249.33 2314.55,2249.33C2315.85,2249.33 2316.9,2248.28 2316.9,2246.98C2316.9,2245.68 2315.85,2244.63 2314.55,2244.63C2315.85,2244.63 2316.9,2245.68 2316.9,2246.98C2316.9,2248.28 2315.85,2249.33 2314.55,2249.33C2313.92,2249.33 2313.33,2249.09 2312.88,2248.64Z" style="fill:none;stroke:rgb(0,165,255);stroke-width:1.9px;"/>
                </g>
                <g transform="matrix(-24.6458,3.01824e-15,-3.01824e-15,-24.6458,60350.5,55731.4)">
                    <path d="M2312.19,2246.98C2312.19,2248.28 2313.25,2249.33 2314.55,2249.33C2313.25,2249.33 2312.19,2248.28 2312.19,2246.98Z" style="fill:none;stroke:rgb(0,165,255);stroke-width:1.52px;"/>
                </g>
                <g transform="matrix(18.0361,0,0,18.0361,-38436.3,-40278.8)">
                    <path d="M2317.61,2252.78L2317.61,2253.48" style="fill:none;stroke:rgb(0,165,255);stroke-width:2.08px;"/>
                </g>
                <g transform="matrix(-1.65581,0,0,1.65581,3441.79,-338.687)">
                    <path d="M135.821,317.131C130.389,306.488 121.733,297.833 111.091,292.4" style="fill:none;stroke:rgb(53,77,255);stroke-width:13.58px;"/>
                </g>
                <g transform="matrix(-2.32022,0,0,2.32022,3498.47,-566.52)">
                    <path d="M137.83,321.517C132.068,307.375 120.847,296.153 106.704,290.392" style="fill:none;stroke:rgb(53,77,255);stroke-width:9.69px;"/>
                </g>
            </g>
        </g>
    </g>
</svg>
